<svg width="86" height="60" viewBox="0 0 86 60" fill="none" xmlns="http://www.w3.org/2000/svg">
<path fill-rule="evenodd" clip-rule="evenodd" d="M78.5217 60H7.47826C3.34839 60 0 56.6419 0 52.5V7.5C0 3.35812 3.34839 0 7.47826 0H78.5217C82.6516 0 86 3.35812 86 7.5V52.5C86 56.6419 82.6516 60 78.5217 60ZM3.73913 24.375H82.2609V16.875H3.73913V24.375ZM82.2609 7.5C82.2609 5.43 80.5857 3.75 78.5217 3.75H7.47826C5.41426 3.75 3.73913 5.43 3.73913 7.5V13.125H82.2609V7.5ZM82.2609 28.125H3.73913V52.5C3.73913 54.57 5.41426 56.25 7.47826 56.25H78.5217C80.5857 56.25 82.2609 54.57 82.2609 52.5V28.125ZM46.7391 39.375H39.2609C38.227 39.375 37.3913 38.5369 37.3913 37.5C37.3913 36.465 38.227 35.625 39.2609 35.625H46.7391C47.773 35.625 48.6087 36.465 48.6087 37.5C48.6087 38.5369 47.773 39.375 46.7391 39.375ZM29.913 39.375H13.087C12.0531 39.375 11.2174 38.5369 11.2174 37.5C11.2174 36.465 12.0531 35.625 13.087 35.625H29.913C30.9469 35.625 31.7826 36.465 31.7826 37.5C31.7826 38.5369 30.9469 39.375 29.913 39.375ZM13.087 45H24.3043C25.3382 45 26.1739 45.84 26.1739 46.875C26.1739 47.9119 25.3382 48.75 24.3043 48.75H13.087C12.0531 48.75 11.2174 47.9119 11.2174 46.875C11.2174 45.84 12.0531 45 13.087 45Z" fill="#442380"/>
</svg>
