<svg width="92" height="92" viewBox="0 0 92 92" fill="none" xmlns="http://www.w3.org/2000/svg">
<path fill-rule="evenodd" clip-rule="evenodd" d="M88.1665 85.1727H3.83317C2.77325 85.1727 1.9165 84.3159 1.9165 83.256C1.9165 82.1961 2.77325 81.3393 3.83317 81.3393H88.1665C89.2264 81.3393 90.0832 82.1961 90.0832 83.256C90.0832 84.3159 89.2264 85.1727 88.1665 85.1727ZM30.6665 66.006C31.7264 66.006 32.5832 66.8628 32.5832 67.9227C32.5832 68.9826 31.7264 69.8393 30.6665 69.8393H15.3332C14.2733 69.8393 13.4165 68.9826 13.4165 67.9227C13.4165 66.8628 14.2733 66.006 15.3332 66.006H17.2498V41.0893H15.3332C14.2733 41.0893 13.4165 40.2326 13.4165 39.1727C13.4165 38.1147 14.2733 37.256 15.3332 37.256H30.6665C31.7264 37.256 32.5832 38.1147 32.5832 39.1727C32.5832 40.2326 31.7264 41.0893 30.6665 41.0893H28.7498V66.006H30.6665ZM24.9165 41.0893H21.0832V66.006H24.9165V41.0893ZM53.6665 66.006C54.7264 66.006 55.5832 66.8628 55.5832 67.9227C55.5832 68.9826 54.7264 69.8393 53.6665 69.8393H38.3332C37.2733 69.8393 36.4165 68.9826 36.4165 67.9227C36.4165 66.8628 37.2733 66.006 38.3332 66.006H40.2498V41.0893H38.3332C37.2733 41.0893 36.4165 40.2326 36.4165 39.1727C36.4165 38.1147 37.2733 37.256 38.3332 37.256H53.6665C54.7264 37.256 55.5832 38.1147 55.5832 39.1727C55.5832 40.2326 54.7264 41.0893 53.6665 41.0893H51.7498V66.006H53.6665ZM47.9165 41.0893H44.0832V66.006H47.9165V41.0893ZM84.3332 75.5893C84.3332 76.6493 83.4764 77.506 82.4165 77.506H9.58317C8.52325 77.506 7.6665 76.6493 7.6665 75.5893C7.6665 74.5294 8.52325 73.6727 9.58317 73.6727H82.4165C83.4764 73.6727 84.3332 74.5294 84.3332 75.5893ZM76.6665 66.006C77.7264 66.006 78.5832 66.8628 78.5832 67.9227C78.5832 68.9826 77.7264 69.8393 76.6665 69.8393H61.3332C60.2733 69.8393 59.4165 68.9826 59.4165 67.9227C59.4165 66.8628 60.2733 66.006 61.3332 66.006H63.2498V41.0893H61.3332C60.2733 41.0893 59.4165 40.2326 59.4165 39.1727C59.4165 38.1147 60.2733 37.256 61.3332 37.256H76.6665C77.7264 37.256 78.5832 38.1147 78.5832 39.1727C78.5832 40.2326 77.7264 41.0893 76.6665 41.0893H74.7498V66.006H76.6665ZM70.9165 41.0893H67.0832V66.006H70.9165V41.0893ZM5.74984 29.5893L45.9998 7.6665L86.2498 29.5893V33.4227H5.74984V29.5893ZM77.7034 29.5893L45.9998 13.198L14.1755 29.5893H77.7034Z" fill="#442380"/>
</svg>
