<svg width="72" height="72" viewBox="0 0 72 72" fill="none" xmlns="http://www.w3.org/2000/svg">
<mask id="path-1-inside-1" fill="white">
<path fill-rule="evenodd" clip-rule="evenodd" d="M2.25 0C1.00736 0 0 1.00736 0 2.25V24.75V47.25V69.75C0 70.9926 1.00736 72 2.25 72H69.75C70.9926 72 72 70.9926 72 69.75V47.25V24.75V2.25C72 1.00736 70.9926 0 69.75 0H2.25ZM67.5 27V45H4.5V27H67.5ZM4.5 67.5V49.5H67.5V67.5H4.5ZM67.5 22.5V4.5H4.5V22.5H67.5ZM22.5 11.25H9V15.75H22.5V11.25ZM51.75 38.25H11.25V33.75H51.75V38.25ZM56.25 38.25H60.75V33.75H56.25V38.25ZM60.75 56.25V60.75H56.25V56.25H60.75ZM51.75 60.75V56.25H47.25V60.75H51.75ZM42.75 56.25V60.75H38.25V56.25H42.75ZM11.25 56.25V60.75H33.75V56.25H11.25ZM31.5 15.75H27V11.25H31.5V15.75ZM36 15.75H40.5V11.25H36V15.75ZM49.5 15.75H45V11.25H49.5V15.75ZM54 15.75H58.5V11.25H54V15.75Z"/>
</mask>
<path fill-rule="evenodd" clip-rule="evenodd" d="M2.25 0C1.00736 0 0 1.00736 0 2.25V24.75V47.25V69.75C0 70.9926 1.00736 72 2.25 72H69.75C70.9926 72 72 70.9926 72 69.75V47.25V24.75V2.25C72 1.00736 70.9926 0 69.75 0H2.25ZM67.5 27V45H4.5V27H67.5ZM4.5 67.5V49.5H67.5V67.5H4.5ZM67.5 22.5V4.5H4.5V22.5H67.5ZM22.5 11.25H9V15.75H22.5V11.25ZM51.75 38.25H11.25V33.75H51.75V38.25ZM56.25 38.25H60.75V33.75H56.25V38.25ZM60.75 56.25V60.75H56.25V56.25H60.75ZM51.75 60.75V56.25H47.25V60.75H51.75ZM42.75 56.25V60.75H38.25V56.25H42.75ZM11.25 56.25V60.75H33.75V56.25H11.25ZM31.5 15.75H27V11.25H31.5V15.75ZM36 15.75H40.5V11.25H36V15.75ZM49.5 15.75H45V11.25H49.5V15.75ZM54 15.75H58.5V11.25H54V15.75Z" fill="#442380"/>
<path d="M67.5 45V45.2H67.7V45H67.5ZM67.5 27H67.7V26.8H67.5V27ZM4.5 45H4.3V45.2H4.5V45ZM4.5 27V26.8H4.3V27H4.5ZM4.5 49.5V49.3H4.3V49.5H4.5ZM4.5 67.5H4.3V67.7H4.5V67.5ZM67.5 49.5H67.7V49.3H67.5V49.5ZM67.5 67.5V67.7H67.7V67.5H67.5ZM67.5 4.5H67.7V4.3H67.5V4.5ZM67.5 22.5V22.7H67.7V22.5H67.5ZM4.5 4.5V4.3H4.3V4.5H4.5ZM4.5 22.5H4.3V22.7H4.5V22.5ZM9 11.25V11.05H8.8V11.25H9ZM22.5 11.25H22.7V11.05H22.5V11.25ZM9 15.75H8.8V15.95H9V15.75ZM22.5 15.75V15.95H22.7V15.75H22.5ZM11.25 38.25H11.05V38.45H11.25V38.25ZM51.75 38.25V38.45H51.95V38.25H51.75ZM11.25 33.75V33.55H11.05V33.75H11.25ZM51.75 33.75H51.95V33.55H51.75V33.75ZM60.75 38.25V38.45H60.95V38.25H60.75ZM56.25 38.25H56.05V38.45H56.25V38.25ZM60.75 33.75H60.95V33.55H60.75V33.75ZM56.25 33.75V33.55H56.05V33.75H56.25ZM60.75 60.75V60.95H60.95V60.75H60.75ZM60.75 56.25H60.95V56.05H60.75V56.25ZM56.25 60.75H56.05V60.95H56.25V60.75ZM56.25 56.25V56.05H56.05V56.25H56.25ZM51.75 56.25H51.95V56.05H51.75V56.25ZM51.75 60.75V60.95H51.95V60.75H51.75ZM47.25 56.25V56.05H47.05V56.25H47.25ZM47.25 60.75H47.05V60.95H47.25V60.75ZM42.75 60.75V60.95H42.95V60.75H42.75ZM42.75 56.25H42.95V56.05H42.75V56.25ZM38.25 60.75H38.05V60.95H38.25V60.75ZM38.25 56.25V56.05H38.05V56.25H38.25ZM11.25 60.75H11.05V60.95H11.25V60.75ZM11.25 56.25V56.05H11.05V56.25H11.25ZM33.75 60.75V60.95H33.95V60.75H33.75ZM33.75 56.25H33.95V56.05H33.75V56.25ZM27 15.75H26.8V15.95H27V15.75ZM31.5 15.75V15.95H31.7V15.75H31.5ZM27 11.25V11.05H26.8V11.25H27ZM31.5 11.25H31.7V11.05H31.5V11.25ZM40.5 15.75V15.95H40.7V15.75H40.5ZM36 15.75H35.8V15.95H36V15.75ZM40.5 11.25H40.7V11.05H40.5V11.25ZM36 11.25V11.05H35.8V11.25H36ZM45 15.75H44.8V15.95H45V15.75ZM49.5 15.75V15.95H49.7V15.75H49.5ZM45 11.25V11.05H44.8V11.25H45ZM49.5 11.25H49.7V11.05H49.5V11.25ZM58.5 15.75V15.95H58.7V15.75H58.5ZM54 15.75H53.8V15.95H54V15.75ZM58.5 11.25H58.7V11.05H58.5V11.25ZM54 11.25V11.05H53.8V11.25H54ZM0.2 2.25C0.2 1.11782 1.11782 0.2 2.25 0.2V-0.2C0.896902 -0.2 -0.2 0.896902 -0.2 2.25H0.2ZM0.2 24.75V2.25H-0.2V24.75H0.2ZM0.2 47.25V24.75H-0.2V47.25H0.2ZM0.2 69.75V47.25H-0.2V69.75H0.2ZM2.25 71.8C1.11782 71.8 0.2 70.8822 0.2 69.75H-0.2C-0.2 71.1031 0.896903 72.2 2.25 72.2V71.8ZM69.75 71.8H2.25V72.2H69.75V71.8ZM71.8 69.75C71.8 70.8822 70.8822 71.8 69.75 71.8V72.2C71.1031 72.2 72.2 71.1031 72.2 69.75H71.8ZM71.8 47.25V69.75H72.2V47.25H71.8ZM71.8 24.75V47.25H72.2V24.75H71.8ZM71.8 2.25V24.75H72.2V2.25H71.8ZM69.75 0.2C70.8822 0.2 71.8 1.11782 71.8 2.25H72.2C72.2 0.896901 71.1031 -0.2 69.75 -0.2V0.2ZM2.25 0.2H69.75V-0.2H2.25V0.2ZM67.7 45V27H67.3V45H67.7ZM4.5 45.2H67.5V44.8H4.5V45.2ZM4.3 27V45H4.7V27H4.3ZM67.5 26.8H4.5V27.2H67.5V26.8ZM4.3 49.5V67.5H4.7V49.5H4.3ZM67.5 49.3H4.5V49.7H67.5V49.3ZM67.7 67.5V49.5H67.3V67.5H67.7ZM4.5 67.7H67.5V67.3H4.5V67.7ZM67.3 4.5V22.5H67.7V4.5H67.3ZM4.5 4.7H67.5V4.3H4.5V4.7ZM4.7 22.5V4.5H4.3V22.5H4.7ZM67.5 22.3H4.5V22.7H67.5V22.3ZM9 11.45H22.5V11.05H9V11.45ZM9.2 15.75V11.25H8.8V15.75H9.2ZM22.5 15.55H9V15.95H22.5V15.55ZM22.3 11.25V15.75H22.7V11.25H22.3ZM11.25 38.45H51.75V38.05H11.25V38.45ZM11.05 33.75V38.25H11.45V33.75H11.05ZM51.75 33.55H11.25V33.95H51.75V33.55ZM51.95 38.25V33.75H51.55V38.25H51.95ZM60.75 38.05H56.25V38.45H60.75V38.05ZM60.55 33.75V38.25H60.95V33.75H60.55ZM56.25 33.95H60.75V33.55H56.25V33.95ZM56.45 38.25V33.75H56.05V38.25H56.45ZM60.95 60.75V56.25H60.55V60.75H60.95ZM56.25 60.95H60.75V60.55H56.25V60.95ZM56.05 56.25V60.75H56.45V56.25H56.05ZM60.75 56.05H56.25V56.45H60.75V56.05ZM51.55 56.25V60.75H51.95V56.25H51.55ZM47.25 56.45H51.75V56.05H47.25V56.45ZM47.45 60.75V56.25H47.05V60.75H47.45ZM51.75 60.55H47.25V60.95H51.75V60.55ZM42.95 60.75V56.25H42.55V60.75H42.95ZM38.25 60.95H42.75V60.55H38.25V60.95ZM38.05 56.25V60.75H38.45V56.25H38.05ZM42.75 56.05H38.25V56.45H42.75V56.05ZM11.45 60.75V56.25H11.05V60.75H11.45ZM33.75 60.55H11.25V60.95H33.75V60.55ZM33.55 56.25V60.75H33.95V56.25H33.55ZM11.25 56.45H33.75V56.05H11.25V56.45ZM27 15.95H31.5V15.55H27V15.95ZM26.8 11.25V15.75H27.2V11.25H26.8ZM31.5 11.05H27V11.45H31.5V11.05ZM31.7 15.75V11.25H31.3V15.75H31.7ZM40.5 15.55H36V15.95H40.5V15.55ZM40.3 11.25V15.75H40.7V11.25H40.3ZM36 11.45H40.5V11.05H36V11.45ZM36.2 15.75V11.25H35.8V15.75H36.2ZM45 15.95H49.5V15.55H45V15.95ZM44.8 11.25V15.75H45.2V11.25H44.8ZM49.5 11.05H45V11.45H49.5V11.05ZM49.7 15.75V11.25H49.3V15.75H49.7ZM58.5 15.55H54V15.95H58.5V15.55ZM58.3 11.25V15.75H58.7V11.25H58.3ZM54 11.45H58.5V11.05H54V11.45ZM54.2 15.75V11.25H53.8V15.75H54.2Z" fill="white" mask="url(#path-1-inside-1)"/>
</svg>
