<svg width="74" height="74" viewBox="0 0 74 74" fill="none" xmlns="http://www.w3.org/2000/svg">
<path d="M18.5093 36.8531H18.5091C15.6874 36.8581 12.9025 36.2133 10.3701 34.9685C7.83782 33.7238 5.62616 31.9126 3.90659 29.6754C2.18702 27.4382 1.00574 24.8351 0.454318 22.0678C-0.0971065 19.3005 -0.00386292 16.4434 0.726821 13.7179C1.45751 10.9925 2.806 8.4719 4.66778 6.35158C6.52956 4.23126 8.8546 2.56815 11.4627 1.49118C14.0708 0.414203 16.8918 -0.0477064 19.7072 0.141255C22.5226 0.330216 25.2566 1.16497 27.6974 2.58081L27.8476 2.66793V2.49431V2.40955H57.772C62.0332 2.40955 66.1199 4.10232 69.1331 7.11546C72.1462 10.1286 73.839 14.2153 73.839 18.4766C73.839 22.7378 72.1462 26.8245 69.1331 29.8376C66.1199 32.8508 62.0332 34.5436 57.772 34.5436H27.8476V34.4588V34.2848L27.6972 34.3724C24.9081 35.9979 21.7375 36.8539 18.5093 36.8531ZM32.921 6.82869H32.7128L32.8429 6.99119C35.4525 10.2505 36.8743 14.3013 36.8743 18.4766C36.8743 22.6518 35.4525 26.7026 32.8429 29.9619L32.7128 30.1244H32.921H57.772C60.8612 30.1244 63.8239 28.8972 66.0083 26.7128C68.1927 24.5284 69.4199 21.5658 69.4199 18.4766C69.4199 15.3873 68.1927 12.4247 66.0083 10.2403C63.8239 8.05587 60.8612 6.82869 57.772 6.82869H32.921ZM26.2636 6.87137C23.9683 5.33771 21.2698 4.51912 18.5093 4.51912C14.8075 4.51912 11.2574 5.98963 8.63987 8.60716C6.02235 11.2247 4.55183 14.7748 4.55183 18.4766C4.55183 21.2371 5.37042 23.9356 6.90409 26.2309C8.43775 28.5262 10.6176 30.3151 13.168 31.3715C15.7184 32.4279 18.5248 32.7043 21.2322 32.1658C23.9397 31.6272 26.4267 30.2979 28.3787 28.346C30.3307 26.394 31.66 23.907 32.1985 21.1995C32.7371 18.492 32.4607 15.6857 31.4043 13.1353C30.3479 10.5849 28.5589 8.40503 26.2636 6.87137Z" fill="#442380" stroke="white" stroke-width="0.2"/>
<path d="M55.4649 37.0532L55.4651 37.0532C58.2868 37.0482 61.0717 37.693 63.604 38.9378C66.1364 40.1825 68.348 41.9937 70.0676 44.2309C71.7871 46.4681 72.9684 49.0712 73.5199 51.8385C74.0713 54.6058 73.978 57.4629 73.2474 60.1884C72.5167 62.9138 71.1682 65.4344 69.3064 67.5547C67.4446 69.675 65.1196 71.3381 62.5115 72.4151C59.9034 73.4921 57.0823 73.954 54.267 73.765C51.4516 73.5761 48.7176 72.7413 46.2768 71.3255L46.1266 71.2384V71.412V71.4967H16.2022C11.9409 71.4967 7.85422 69.804 4.84107 66.7908C1.82793 63.7777 0.135156 59.691 0.135156 55.4297C0.135156 51.1685 1.82793 47.0818 4.84107 44.0686C7.85422 41.0555 11.9409 39.3627 16.2022 39.3627H46.1266V39.4475V39.6215L46.277 39.5339C49.0661 37.9084 52.2367 37.0523 55.4649 37.0532ZM41.0532 67.0776H41.2613L41.1312 66.9151C38.5217 63.6558 37.0999 59.605 37.0999 55.4297C37.0999 51.2545 38.5217 47.2037 41.1312 43.9444L41.2613 43.7819H41.0532H16.2022C13.113 43.7819 10.1503 45.0091 7.96588 47.1935C5.78148 49.3779 4.5543 52.3405 4.5543 55.4297C4.5543 58.5189 5.78148 61.4816 7.96588 63.666C10.1503 65.8504 13.113 67.0776 16.2022 67.0776H41.0532ZM47.7106 67.0349C50.0059 68.5686 52.7044 69.3872 55.4649 69.3872C59.1666 69.3872 62.7168 67.9167 65.3343 65.2991C67.9518 62.6816 69.4223 59.1315 69.4223 55.4297C69.4223 52.6692 68.6037 49.9707 67.0701 47.6754C65.5364 45.3801 63.3566 43.5912 60.8062 42.5347C58.2558 41.4783 55.4494 41.2019 52.7419 41.7405C50.0345 42.279 47.5475 43.6084 45.5955 45.5603C43.6435 47.5123 42.3142 49.9993 41.7757 52.7068C41.2371 55.4143 41.5135 58.2206 42.5699 60.771C43.6263 63.3214 45.4153 65.5013 47.7106 67.0349Z" fill="#442380" stroke="white" stroke-width="0.2"/>
<path d="M25.9 18.5C25.9 22.5869 22.5869 25.9 18.5 25.9C14.4131 25.9 11.1 22.5869 11.1 18.5C11.1 14.4131 14.4131 11.1 18.5 11.1C22.5869 11.1 25.9 14.4131 25.9 18.5Z" fill="#44227F" stroke="white" stroke-width="0.2"/>
<path d="M21.9 18.5C21.9 20.3778 20.3778 21.9 18.5 21.9C16.6222 21.9 15.1 20.3778 15.1 18.5C15.1 16.6222 16.6222 15.1 18.5 15.1C20.3778 15.1 21.9 16.6222 21.9 18.5Z" fill="white" stroke="white" stroke-width="0.2"/>
<path d="M62.9 55.5C62.9 59.5869 59.5869 62.9 55.5 62.9C51.4131 62.9 48.1 59.5869 48.1 55.5C48.1 51.4131 51.4131 48.1 55.5 48.1C59.5869 48.1 62.9 51.4131 62.9 55.5Z" fill="#44227F" stroke="white" stroke-width="0.2"/>
<path d="M58.9 55.5C58.9 57.3778 57.3778 58.9 55.5 58.9C53.6222 58.9 52.1 57.3778 52.1 55.5C52.1 53.6222 53.6222 52.1 55.5 52.1C57.3778 52.1 58.9 53.6222 58.9 55.5Z" fill="white" stroke="white" stroke-width="0.2"/>
</svg>
